<mxfile host="app.diagrams.net" agent="Mozilla/5.0 (Windows NT 10.0; WOW64) AppleWebKit/537.36 (KHTML, like Gecko) Chrome/106.0.0.0 Atom/26.0.0.0 Safari/537.36" version="26.1.1">
  <diagram id="C5RBs43oDa-KdzZeNtuy" name="Page-1">
    <mxGraphModel dx="2015" dy="661" grid="1" gridSize="10" guides="1" tooltips="1" connect="1" arrows="1" fold="1" page="1" pageScale="1" pageWidth="827" pageHeight="1169" background="none" math="0" shadow="0">
      <root>
        <mxCell id="WIyWlLk6GJQsqaUBKTNV-0" />
        <mxCell id="WIyWlLk6GJQsqaUBKTNV-1" parent="WIyWlLk6GJQsqaUBKTNV-0" />
        <mxCell id="adAxLsS4ZwnRrMbIdCEw-12" value="" style="edgeStyle=orthogonalEdgeStyle;rounded=0;orthogonalLoop=1;jettySize=auto;html=1;" edge="1" parent="WIyWlLk6GJQsqaUBKTNV-1">
          <mxGeometry relative="1" as="geometry">
            <mxPoint x="220" y="120" as="sourcePoint" />
            <mxPoint x="220" y="170" as="targetPoint" />
          </mxGeometry>
        </mxCell>
        <mxCell id="adAxLsS4ZwnRrMbIdCEw-11" value="" style="edgeStyle=orthogonalEdgeStyle;rounded=0;orthogonalLoop=1;jettySize=auto;html=1;" edge="1" parent="WIyWlLk6GJQsqaUBKTNV-1" source="adAxLsS4ZwnRrMbIdCEw-6">
          <mxGeometry relative="1" as="geometry">
            <mxPoint x="220" y="80" as="targetPoint" />
          </mxGeometry>
        </mxCell>
        <mxCell id="adAxLsS4ZwnRrMbIdCEw-6" value="Начало" style="strokeWidth=2;html=1;shape=mxgraph.flowchart.start_1;whiteSpace=wrap;" vertex="1" parent="WIyWlLk6GJQsqaUBKTNV-1">
          <mxGeometry x="160" width="120" height="50" as="geometry" />
        </mxCell>
        <mxCell id="adAxLsS4ZwnRrMbIdCEw-18" value="ГГ: Колобок;&lt;div&gt;Старуха, Лиса, Заяц&lt;/div&gt;" style="shape=parallelogram;html=1;strokeWidth=2;perimeter=parallelogramPerimeter;whiteSpace=wrap;rounded=1;arcSize=12;size=0.23;" vertex="1" parent="WIyWlLk6GJQsqaUBKTNV-1">
          <mxGeometry x="130" y="80" width="200" height="40" as="geometry" />
        </mxCell>
        <mxCell id="adAxLsS4ZwnRrMbIdCEw-22" value="" style="edgeStyle=orthogonalEdgeStyle;rounded=0;orthogonalLoop=1;jettySize=auto;html=1;" edge="1" parent="WIyWlLk6GJQsqaUBKTNV-1" source="adAxLsS4ZwnRrMbIdCEw-19" target="adAxLsS4ZwnRrMbIdCEw-21">
          <mxGeometry relative="1" as="geometry" />
        </mxCell>
        <mxCell id="adAxLsS4ZwnRrMbIdCEw-19" value="Старуха замесила тесто" style="rounded=0;whiteSpace=wrap;html=1;" vertex="1" parent="WIyWlLk6GJQsqaUBKTNV-1">
          <mxGeometry x="160" y="170" width="120" height="50" as="geometry" />
        </mxCell>
        <mxCell id="adAxLsS4ZwnRrMbIdCEw-25" value="" style="edgeStyle=orthogonalEdgeStyle;rounded=0;orthogonalLoop=1;jettySize=auto;html=1;" edge="1" parent="WIyWlLk6GJQsqaUBKTNV-1" source="adAxLsS4ZwnRrMbIdCEw-21" target="adAxLsS4ZwnRrMbIdCEw-24">
          <mxGeometry relative="1" as="geometry" />
        </mxCell>
        <mxCell id="adAxLsS4ZwnRrMbIdCEw-21" value="Колобок выпрыгнул с окна" style="rounded=0;whiteSpace=wrap;html=1;" vertex="1" parent="WIyWlLk6GJQsqaUBKTNV-1">
          <mxGeometry x="160" y="270" width="120" height="50" as="geometry" />
        </mxCell>
        <mxCell id="adAxLsS4ZwnRrMbIdCEw-28" value="" style="edgeStyle=orthogonalEdgeStyle;rounded=0;orthogonalLoop=1;jettySize=auto;html=1;" edge="1" parent="WIyWlLk6GJQsqaUBKTNV-1" source="adAxLsS4ZwnRrMbIdCEw-23" target="adAxLsS4ZwnRrMbIdCEw-27">
          <mxGeometry relative="1" as="geometry" />
        </mxCell>
        <mxCell id="adAxLsS4ZwnRrMbIdCEw-23" value="Встреча с зайцем" style="rounded=0;whiteSpace=wrap;html=1;" vertex="1" parent="WIyWlLk6GJQsqaUBKTNV-1">
          <mxGeometry x="160" y="490" width="120" height="50" as="geometry" />
        </mxCell>
        <mxCell id="adAxLsS4ZwnRrMbIdCEw-26" value="" style="edgeStyle=orthogonalEdgeStyle;rounded=0;orthogonalLoop=1;jettySize=auto;html=1;" edge="1" parent="WIyWlLk6GJQsqaUBKTNV-1" source="adAxLsS4ZwnRrMbIdCEw-24" target="adAxLsS4ZwnRrMbIdCEw-23">
          <mxGeometry relative="1" as="geometry" />
        </mxCell>
        <mxCell id="adAxLsS4ZwnRrMbIdCEw-24" value="Ушёл в лес" style="rounded=0;whiteSpace=wrap;html=1;" vertex="1" parent="WIyWlLk6GJQsqaUBKTNV-1">
          <mxGeometry x="160" y="380" width="120" height="50" as="geometry" />
        </mxCell>
        <mxCell id="adAxLsS4ZwnRrMbIdCEw-33" value="" style="edgeStyle=orthogonalEdgeStyle;rounded=0;orthogonalLoop=1;jettySize=auto;html=1;" edge="1" parent="WIyWlLk6GJQsqaUBKTNV-1" source="adAxLsS4ZwnRrMbIdCEw-27" target="adAxLsS4ZwnRrMbIdCEw-29">
          <mxGeometry relative="1" as="geometry" />
        </mxCell>
        <mxCell id="adAxLsS4ZwnRrMbIdCEw-36" value="" style="edgeStyle=orthogonalEdgeStyle;rounded=0;orthogonalLoop=1;jettySize=auto;html=1;" edge="1" parent="WIyWlLk6GJQsqaUBKTNV-1" source="adAxLsS4ZwnRrMbIdCEw-27" target="adAxLsS4ZwnRrMbIdCEw-34">
          <mxGeometry relative="1" as="geometry" />
        </mxCell>
        <mxCell id="adAxLsS4ZwnRrMbIdCEw-27" value="Поёт песенку" style="rhombus;whiteSpace=wrap;html=1;" vertex="1" parent="WIyWlLk6GJQsqaUBKTNV-1">
          <mxGeometry x="160" y="590" width="120" height="60" as="geometry" />
        </mxCell>
        <mxCell id="adAxLsS4ZwnRrMbIdCEw-32" value="" style="edgeStyle=orthogonalEdgeStyle;rounded=0;orthogonalLoop=1;jettySize=auto;html=1;" edge="1" parent="WIyWlLk6GJQsqaUBKTNV-1" source="adAxLsS4ZwnRrMbIdCEw-29" target="adAxLsS4ZwnRrMbIdCEw-31">
          <mxGeometry relative="1" as="geometry" />
        </mxCell>
        <mxCell id="adAxLsS4ZwnRrMbIdCEw-29" value="Да" style="text;html=1;align=center;verticalAlign=middle;resizable=0;points=[];autosize=1;strokeColor=none;fillColor=none;" vertex="1" parent="WIyWlLk6GJQsqaUBKTNV-1">
          <mxGeometry x="80" y="605" width="40" height="30" as="geometry" />
        </mxCell>
        <mxCell id="adAxLsS4ZwnRrMbIdCEw-43" value="" style="edgeStyle=orthogonalEdgeStyle;rounded=0;orthogonalLoop=1;jettySize=auto;html=1;" edge="1" parent="WIyWlLk6GJQsqaUBKTNV-1" source="adAxLsS4ZwnRrMbIdCEw-31" target="adAxLsS4ZwnRrMbIdCEw-42">
          <mxGeometry relative="1" as="geometry" />
        </mxCell>
        <mxCell id="adAxLsS4ZwnRrMbIdCEw-31" value="Сказка продолжается и Колобок идет дальше" style="rounded=0;whiteSpace=wrap;html=1;" vertex="1" parent="WIyWlLk6GJQsqaUBKTNV-1">
          <mxGeometry x="40" y="680" width="120" height="60" as="geometry" />
        </mxCell>
        <mxCell id="adAxLsS4ZwnRrMbIdCEw-39" value="" style="edgeStyle=orthogonalEdgeStyle;rounded=0;orthogonalLoop=1;jettySize=auto;html=1;" edge="1" parent="WIyWlLk6GJQsqaUBKTNV-1" source="adAxLsS4ZwnRrMbIdCEw-34" target="adAxLsS4ZwnRrMbIdCEw-37">
          <mxGeometry relative="1" as="geometry" />
        </mxCell>
        <mxCell id="adAxLsS4ZwnRrMbIdCEw-34" value="Нет&lt;div&gt;&lt;br&gt;&lt;/div&gt;" style="text;html=1;align=center;verticalAlign=middle;resizable=0;points=[];autosize=1;strokeColor=none;fillColor=none;" vertex="1" parent="WIyWlLk6GJQsqaUBKTNV-1">
          <mxGeometry x="320" y="600" width="40" height="40" as="geometry" />
        </mxCell>
        <mxCell id="adAxLsS4ZwnRrMbIdCEw-41" value="" style="edgeStyle=orthogonalEdgeStyle;rounded=0;orthogonalLoop=1;jettySize=auto;html=1;" edge="1" parent="WIyWlLk6GJQsqaUBKTNV-1" source="adAxLsS4ZwnRrMbIdCEw-37" target="adAxLsS4ZwnRrMbIdCEw-40">
          <mxGeometry relative="1" as="geometry" />
        </mxCell>
        <mxCell id="adAxLsS4ZwnRrMbIdCEw-37" value="Сказка не продолжится" style="rounded=0;whiteSpace=wrap;html=1;" vertex="1" parent="WIyWlLk6GJQsqaUBKTNV-1">
          <mxGeometry x="280" y="680" width="120" height="60" as="geometry" />
        </mxCell>
        <mxCell id="adAxLsS4ZwnRrMbIdCEw-40" value="Конец" style="ellipse;whiteSpace=wrap;html=1;" vertex="1" parent="WIyWlLk6GJQsqaUBKTNV-1">
          <mxGeometry x="280" y="790" width="120" height="50" as="geometry" />
        </mxCell>
        <mxCell id="adAxLsS4ZwnRrMbIdCEw-50" value="" style="edgeStyle=orthogonalEdgeStyle;rounded=0;orthogonalLoop=1;jettySize=auto;html=1;" edge="1" parent="WIyWlLk6GJQsqaUBKTNV-1" source="adAxLsS4ZwnRrMbIdCEw-42" target="adAxLsS4ZwnRrMbIdCEw-44">
          <mxGeometry relative="1" as="geometry" />
        </mxCell>
        <mxCell id="adAxLsS4ZwnRrMbIdCEw-42" value="...&lt;div&gt;Встреча с лисой&lt;/div&gt;" style="rounded=0;whiteSpace=wrap;html=1;" vertex="1" parent="WIyWlLk6GJQsqaUBKTNV-1">
          <mxGeometry x="40" y="790" width="120" height="50" as="geometry" />
        </mxCell>
        <mxCell id="adAxLsS4ZwnRrMbIdCEw-48" value="" style="edgeStyle=orthogonalEdgeStyle;rounded=0;orthogonalLoop=1;jettySize=auto;html=1;" edge="1" parent="WIyWlLk6GJQsqaUBKTNV-1" source="adAxLsS4ZwnRrMbIdCEw-44" target="adAxLsS4ZwnRrMbIdCEw-46">
          <mxGeometry relative="1" as="geometry" />
        </mxCell>
        <mxCell id="adAxLsS4ZwnRrMbIdCEw-53" value="" style="edgeStyle=orthogonalEdgeStyle;rounded=0;orthogonalLoop=1;jettySize=auto;html=1;" edge="1" parent="WIyWlLk6GJQsqaUBKTNV-1" source="adAxLsS4ZwnRrMbIdCEw-44" target="adAxLsS4ZwnRrMbIdCEw-45">
          <mxGeometry relative="1" as="geometry" />
        </mxCell>
        <mxCell id="adAxLsS4ZwnRrMbIdCEw-44" value="Поёт песенку" style="rhombus;whiteSpace=wrap;html=1;" vertex="1" parent="WIyWlLk6GJQsqaUBKTNV-1">
          <mxGeometry x="40" y="890" width="120" height="60" as="geometry" />
        </mxCell>
        <mxCell id="adAxLsS4ZwnRrMbIdCEw-52" value="" style="edgeStyle=orthogonalEdgeStyle;rounded=0;orthogonalLoop=1;jettySize=auto;html=1;" edge="1" parent="WIyWlLk6GJQsqaUBKTNV-1" source="adAxLsS4ZwnRrMbIdCEw-45" target="adAxLsS4ZwnRrMbIdCEw-51">
          <mxGeometry relative="1" as="geometry" />
        </mxCell>
        <mxCell id="adAxLsS4ZwnRrMbIdCEw-45" value="Нет" style="text;html=1;align=center;verticalAlign=middle;resizable=0;points=[];autosize=1;strokeColor=none;fillColor=none;" vertex="1" parent="WIyWlLk6GJQsqaUBKTNV-1">
          <mxGeometry x="190" y="905" width="40" height="30" as="geometry" />
        </mxCell>
        <mxCell id="adAxLsS4ZwnRrMbIdCEw-49" value="" style="edgeStyle=orthogonalEdgeStyle;rounded=0;orthogonalLoop=1;jettySize=auto;html=1;" edge="1" parent="WIyWlLk6GJQsqaUBKTNV-1" source="adAxLsS4ZwnRrMbIdCEw-46" target="adAxLsS4ZwnRrMbIdCEw-47">
          <mxGeometry relative="1" as="geometry" />
        </mxCell>
        <mxCell id="adAxLsS4ZwnRrMbIdCEw-46" value="Да" style="text;html=1;align=center;verticalAlign=middle;resizable=0;points=[];autosize=1;strokeColor=none;fillColor=none;" vertex="1" parent="WIyWlLk6GJQsqaUBKTNV-1">
          <mxGeometry x="-30" y="905" width="40" height="30" as="geometry" />
        </mxCell>
        <mxCell id="adAxLsS4ZwnRrMbIdCEw-55" value="" style="edgeStyle=orthogonalEdgeStyle;rounded=0;orthogonalLoop=1;jettySize=auto;html=1;" edge="1" parent="WIyWlLk6GJQsqaUBKTNV-1" source="adAxLsS4ZwnRrMbIdCEw-47" target="adAxLsS4ZwnRrMbIdCEw-54">
          <mxGeometry relative="1" as="geometry" />
        </mxCell>
        <mxCell id="adAxLsS4ZwnRrMbIdCEw-47" value="Лисица обманула и скушала его :)" style="rounded=0;whiteSpace=wrap;html=1;" vertex="1" parent="WIyWlLk6GJQsqaUBKTNV-1">
          <mxGeometry x="-70" y="980" width="120" height="60" as="geometry" />
        </mxCell>
        <mxCell id="adAxLsS4ZwnRrMbIdCEw-56" value="" style="edgeStyle=orthogonalEdgeStyle;rounded=0;orthogonalLoop=1;jettySize=auto;html=1;" edge="1" parent="WIyWlLk6GJQsqaUBKTNV-1" source="adAxLsS4ZwnRrMbIdCEw-51" target="adAxLsS4ZwnRrMbIdCEw-54">
          <mxGeometry relative="1" as="geometry" />
        </mxCell>
        <mxCell id="adAxLsS4ZwnRrMbIdCEw-51" value="Лиса все равно скушает его" style="rounded=0;whiteSpace=wrap;html=1;" vertex="1" parent="WIyWlLk6GJQsqaUBKTNV-1">
          <mxGeometry x="150" y="980" width="120" height="60" as="geometry" />
        </mxCell>
        <mxCell id="adAxLsS4ZwnRrMbIdCEw-54" value="Конец" style="ellipse;whiteSpace=wrap;html=1;" vertex="1" parent="WIyWlLk6GJQsqaUBKTNV-1">
          <mxGeometry x="40" y="1110" width="120" height="50" as="geometry" />
        </mxCell>
      </root>
    </mxGraphModel>
  </diagram>
</mxfile>
